<svg width="285" height="88" viewBox="0 0 285 88" fill="none" xmlns="http://www.w3.org/2000/svg" className="logo-dark">
<rect width="285" height="88" fill="#0A0A0A"/>
<path d="M83.53 46.44C83.53 33.9 82.98 24.7333 81.88 18.94C80.78 13.0733 78.69 9.59 75.61 8.49L76.05 6.95C78.3233 7.24333 82.0267 7.39 87.16 7.39C92.2933 7.39 97.0233 7.09666 101.35 6.51L101.68 9.04C96.4733 10.2867 92.8433 11.02 90.79 11.24C89.8367 18.4267 89.36 27.9967 89.36 39.95V46.44C89.36 60.1533 89.8367 69.7233 90.79 75.15C94.53 75.59 98.05 76.25 101.35 77.13L100.91 79.88C97.0233 79.2933 93.1 79 89.14 79C85.2533 79 82.1 79.11 79.68 79.33C79.68 76.91 77.2967 71.52 72.53 63.16C67.7633 54.8 59.11 40.83 46.57 21.25L46.13 21.47V39.95C46.13 57.9167 47.4867 69.65 50.2 75.15C54.2333 75.5167 58.23 76.2133 62.19 77.24L61.97 79.88C56.5433 79.2933 50.64 79 44.26 79C37.9533 79 32.8567 79.2933 28.97 79.88L28.53 77.13C31.83 76.1033 35.35 75.3333 39.09 74.82C39.8967 68.8067 40.3 59.3467 40.3 46.44V39.95C40.3 29.61 39.86 20.7733 38.98 13.44C30.3267 13.44 24.79 14.6133 22.37 16.96C21.8567 17.9867 21.6 19.6 21.6 21.8C21.6 24 21.9667 25.5033 22.7 26.31L22.59 27.08C20.7567 28.18 18.9233 29.72 17.09 31.7C16.21 31.6267 15.5133 31.26 15 30.6C14.4133 29.94 14.12 29.17 14.12 28.29C14.12 24.6967 16.2833 20.4067 20.61 15.42C24.9367 10.4333 28.97 7.28 32.71 5.96C33.59 6.03333 36.0467 6.29 40.08 6.73C44.1867 7.17 47.56 7.39 50.2 7.39C52.84 7.39 55.2967 7.17 57.57 6.73L58.01 9.48C55.0033 10.7267 53.5 11.9367 53.5 13.11C53.8667 15.09 55.9567 19.27 59.77 25.65C63.5833 31.9567 71.3567 44.24 83.09 62.5L83.53 62.28V46.44ZM132.596 5.74C141.543 5.74 148.289 8.41666 152.836 13.77C157.456 19.1233 159.766 26.7867 159.766 36.76C159.766 46.66 157.236 55.6067 152.176 63.6C147.189 71.52 140.223 77.2033 131.276 80.65C122.696 80.65 115.803 77.8267 110.596 72.18C105.389 66.46 102.786 59.0167 102.786 49.85C102.786 34.89 108.213 22.4967 119.066 12.67L120.386 13.55C115.179 21.1033 112.576 30.49 112.576 41.71C112.576 49.7033 114.409 56.89 118.076 63.27C121.816 69.5767 126.986 72.73 133.586 72.73C137.913 72.73 141.543 71.4467 144.476 68.88C148.143 62.1333 149.976 54.14 149.976 44.9C149.976 32.8 147.666 23.9267 143.046 18.28C140.553 15.2 137.436 13.66 133.696 13.66C131.789 13.66 130.029 14.21 128.416 15.31C126.803 16.41 125.666 17.84 125.006 19.6C125.006 21.0667 125.336 22.79 125.996 24.77C126.656 26.6767 127.499 27.8867 128.526 28.4L128.746 29.17C127.133 31.15 125.923 33.24 125.116 35.44C124.969 35.5133 124.676 35.55 124.236 35.55C121.596 35.55 120.276 33.2033 120.276 28.51C120.276 20.59 124.383 13 132.596 5.74ZM182.818 11.24C182.011 16.74 181.608 27.0067 181.608 42.04C181.608 57.0733 182.085 68.11 183.038 75.15C186.925 75.5167 190.958 76.2133 195.138 77.24L194.808 79.88C189.381 79.2933 183.478 79 177.098 79C170.791 79 165.695 79.2933 161.808 79.88L161.368 77.13C164.668 76.1033 168.188 75.3333 171.928 74.82C172.735 68.8067 173.138 59.3467 173.138 46.44V39.95C173.138 28.07 172.661 18.61 171.708 11.57C167.968 11.0567 164.448 10.2867 161.148 9.26L161.588 6.51C165.475 7.09666 170.571 7.39 176.878 7.39C183.258 7.39 189.161 7.09666 194.588 6.51L194.918 9.14999C190.738 10.1767 186.705 10.8733 182.818 11.24ZM204.808 75.15C205.762 68.11 206.238 58.0267 206.238 44.9C206.238 31.7 205.872 21.14 205.138 13.22C197.145 13.3667 192.012 14.54 189.738 16.74C189.225 17.7667 188.968 19.38 188.968 21.58C188.968 23.78 189.335 25.2833 190.068 26.09L189.958 26.86C188.125 27.96 186.292 29.5 184.458 31.48C183.578 31.4067 182.882 31.04 182.368 30.38C181.782 29.72 181.488 28.95 181.488 28.07C181.488 24.6967 183.432 20.7 187.318 16.08C191.132 11.46 194.798 8.26999 198.318 6.51C204.552 7.09666 213.572 7.39 225.378 7.39C232.858 7.39 238.542 8.52666 242.428 10.8C246.315 13 248.258 17.2533 248.258 23.56C248.258 32.5067 243.675 38.74 234.508 42.26L249.908 74.82C253.648 75.3333 257.168 76.1033 260.468 77.13L260.028 79.88C255.702 79.2933 251.008 79 245.948 79C240.962 79 237.332 79.1467 235.058 79.44L234.618 77.9C235.865 76.6533 236.488 74.5633 236.488 71.63C236.488 65.7633 233.042 56.4133 226.148 43.58C224.315 43.2133 222.188 43.03 219.768 43.03L220.098 40.61H221.418C226.698 40.61 230.768 39.3267 233.628 36.76C236.488 34.12 237.918 30.3433 237.918 25.43C237.918 20.4433 236.635 17.1067 234.068 15.42C231.502 13.7333 227.468 12.89 221.968 12.89C219.402 12.89 217.275 13 215.588 13.22C215.002 19.7467 214.708 30.27 214.708 44.79C214.708 59.31 215.112 69.32 215.918 74.82C219.658 75.3333 223.178 76.1033 226.478 77.13L226.038 79.88C222.152 79.2933 217.018 79 210.638 79C204.332 79 198.465 79.2933 193.038 79.88L192.708 77.24C196.888 76.2133 200.922 75.5167 204.808 75.15Z" fill="white"/>
</svg>